<?xml version="1.0" encoding="UTF-8" standalone="no"?>
<!DOCTYPE svg PUBLIC "-//W3C//DTD SVG 1.1//EN" "http://www.w3.org/Graphics/SVG/1.1/DTD/svg11.dtd">
<svg width="100%" height="100%" viewBox="0 0 2844 1224" version="1.1" xmlns="http://www.w3.org/2000/svg" xmlns:xlink="http://www.w3.org/1999/xlink" xml:space="preserve" xmlns:serif="http://www.serif.com/" style="fill-rule:evenodd;clip-rule:evenodd;stroke-linejoin:round;stroke-miterlimit:2;">
    <g transform="matrix(1,0,0,1,-838.064,-332.607)">
        <g transform="matrix(4.16667,0,0,4.16667,0,0)">
            <g transform="matrix(0.96111,0,0,0.96111,-1820.89,-1798.67)">
                <path d="M2640.29,2145.14C2637.73,2148.97 2634.96,2152.66 2631.99,2156.18C2626.81,2162.33 2621.03,2167.96 2614.76,2172.98C2608.95,2177.64 2602.71,2181.76 2596.14,2185.29C2589.78,2188.71 2583.12,2191.56 2576.26,2193.8C2568.64,2196.29 2560.78,2198.02 2552.83,2198.96C2542.07,2200.24 2531.15,2200.11 2520.43,2198.56C2513.96,2197.62 2507.56,2196.16 2501.32,2194.2C2489.01,2190.33 2477.34,2184.49 2466.85,2176.99C2455.02,2168.52 2444.71,2157.95 2436.55,2145.9C2432.25,2139.56 2428.54,2132.81 2425.5,2125.77C2422.59,2119.03 2420.29,2112.03 2418.64,2104.87C2414.99,2089.08 2414.51,2072.57 2417.21,2056.59C2418.6,2048.38 2420.83,2040.3 2423.87,2032.54C2427.04,2024.41 2431.1,2016.62 2435.93,2009.35C2440.18,2002.96 2445.03,1996.97 2450.39,1991.48C2455.75,1985.99 2461.62,1981 2467.9,1976.6C2473.52,1972.67 2479.46,1969.22 2485.65,1966.28C2491.64,1963.44 2497.85,1961.09 2504.22,1959.26C2510.15,1957.56 2516.22,1956.3 2522.35,1955.52C2528.9,1954.67 2535.51,1954.36 2542.12,1954.57C2553.01,1954.91 2563.86,1956.7 2574.28,1959.91C2586.68,1963.72 2598.44,1969.53 2609.02,1977.03C2620.94,1985.48 2631.34,1996.06 2639.57,2008.13C2643.89,2014.46 2647.61,2021.2 2650.67,2028.22C2653.63,2035.01 2655.97,2042.07 2657.64,2049.28C2661.31,2065.07 2661.82,2081.58 2659.14,2097.56C2657.54,2107.13 2654.79,2116.51 2650.97,2125.43C2648.07,2132.2 2644.56,2138.69 2640.5,2144.83L2640.42,2144.95C2640.43,2144.97 2640.44,2144.99 2640.45,2145.01L2640.29,2145.14ZM2598.58,2163.23L2597.83,2163.74L2596.87,2164.88L2596.91,2165.23L2597.54,2166.02L2596.95,2166.05L2596.79,2166.31L2596.58,2166.2L2596.04,2166.24L2595.87,2166.96L2594.49,2167.64L2593.79,2167.8L2593.7,2167.93L2593.7,2168.41L2593.33,2168.42L2593.12,2167.97L2592.45,2168.01L2591.41,2167.84L2591.12,2167.62L2591.08,2167.15L2590.79,2166.92L2590.45,2166.11L2590.62,2165.99L2590.83,2166.21L2591.12,2166.19L2591.83,2165.43L2592.2,2165.41L2592.79,2165.61L2592.95,2165.36L2593.08,2164.65L2592.95,2164.29L2594.04,2164.46L2595.25,2164.38L2595.87,2164.22L2597.24,2163.66L2598.45,2162.87L2599.37,2162.45L2598.58,2163.23ZM2565.79,2164.97C2564.99,2165.36 2564.87,2165.46 2563.54,2165.52L2563.54,2164.41C2560.7,2164.23 2557.87,2164.04 2555.04,2163.86C2554.7,2164.97 2555.12,2164.34 2554.49,2164.97L2554.49,2165.52C2556.62,2165.68 2558.04,2166.19 2559.58,2166.64L2562.99,2166.64L2562.99,2166.08L2563.54,2166.08L2563.54,2166.64L2565.79,2166.64L2565.79,2166.08C2566.45,2165.61 2565.87,2166.16 2566.37,2165.52L2565.79,2165.52L2565.79,2164.97ZM2570.33,2162.2L2569.2,2162.2L2569.2,2163.86L2570.33,2163.86L2570.33,2162.2ZM2572.04,2159.99C2572.49,2160.61 2571.95,2160.07 2572.58,2160.53C2573.08,2161.16 2572.49,2160.62 2573.16,2161.09C2573.33,2160.53 2573.54,2159.99 2573.7,2159.43C2572.58,2159.76 2573.24,2159.34 2572.58,2159.99L2572.04,2159.99ZM2598.04,2088.44L2593.49,2088.44C2593.37,2087.33 2592.33,2084.9 2591.83,2084.56C2590.87,2084.37 2589.91,2084.2 2589,2084L2589,2083.45L2588.41,2083.45C2588.62,2082.9 2588.79,2082.34 2589,2081.79L2588.41,2081.79C2587.83,2080.87 2587.62,2080.88 2587.29,2079.57C2584.45,2079.83 2583.45,2080.78 2581.62,2081.79C2580.79,2080.02 2579.74,2078.48 2579.37,2076.24C2581.41,2076.25 2581.95,2076.33 2582.75,2075.13C2583.41,2074.66 2582.87,2075.21 2583.33,2074.58C2582.62,2074.12 2582.66,2074.2 2582.2,2073.47L2580.49,2073.47L2580.49,2071.8L2579.37,2071.8C2578.95,2070.28 2578.41,2070.13 2577.66,2069.03L2577.12,2069.03C2576.58,2067.9 2577.66,2067.44 2577.66,2067.37C2577.29,2066.26 2576.91,2065.15 2576.54,2064.04L2575.95,2064.04L2575.95,2063.49C2575.33,2063.66 2574.41,2064.51 2573.16,2064.04C2572.95,2063.67 2572.79,2063.3 2572.58,2062.93C2572.04,2063.11 2571.45,2063.3 2570.91,2063.49L2570.91,2062.93L2569.75,2062.93C2568.87,2062.26 2569.79,2061.24 2569.2,2060.16C2568.62,2059.79 2568.08,2059.42 2567.49,2059.05C2567.62,2058.41 2568.54,2057.99 2568.08,2056.83C2567.7,2056.64 2567.33,2056.46 2566.91,2056.28C2567.12,2055.17 2567.33,2054.06 2567.49,2052.95L2566.91,2052.95L2566.91,2049.07L2567.49,2049.07C2567.7,2048.14 2567.87,2047.21 2568.08,2046.29C2567.12,2046.48 2566.16,2046.66 2565.24,2046.85L2565.24,2046.29L2563.54,2046.29L2563.54,2045.74C2562.79,2045.93 2562.03,2046.11 2561.29,2046.29L2561.29,2046.85C2560.54,2047.09 2561.2,2046.63 2560.7,2046.29L2560.16,2046.29L2560.16,2046.85L2558.45,2046.85L2558.45,2047.4C2557.87,2047.58 2557.32,2047.78 2556.74,2047.96C2557.12,2050.06 2557.04,2049.88 2557.32,2051.84L2559.58,2051.84C2559.37,2052.4 2559.2,2052.95 2558.99,2053.5L2559.58,2053.5L2559.58,2054.06C2559.2,2054.24 2558.82,2054.43 2558.45,2054.61C2558.29,2055.09 2559.54,2056.18 2558.99,2057.39C2558.99,2057.39 2558.08,2058.11 2557.87,2058.49L2555.62,2058.49L2555.62,2057.94L2555.04,2057.94C2554.87,2057.02 2554.66,2056.09 2554.49,2055.17C2552.7,2055.35 2552.33,2055.74 2551.07,2056.28C2550.33,2058.36 2550.79,2056.74 2551.07,2058.49C2550.7,2058.68 2550.33,2058.86 2549.95,2059.05C2549.45,2060.35 2550.29,2061.74 2550.53,2062.38L2549.41,2062.38C2549.58,2064.41 2549.79,2066.45 2549.95,2068.48C2549.03,2068.29 2548.08,2068.11 2547.12,2067.92L2546.58,2069.03C2546.99,2069.68 2547.33,2068.82 2547.12,2069.59L2546.58,2069.59L2546.58,2070.69C2545.08,2070.51 2543.58,2070.32 2542.04,2070.14C2541.87,2069.59 2541.66,2069.03 2541.49,2068.48C2539.41,2068.66 2537.33,2068.84 2535.24,2069.03L2535.24,2070.14C2533.58,2070.32 2531.87,2070.51 2530.16,2070.69C2529.83,2071.8 2530.24,2071.18 2529.62,2071.8C2529.12,2072.43 2529.66,2071.89 2529.04,2072.36C2528.7,2071.51 2528.58,2071.45 2528.45,2070.14C2527.16,2069.78 2527.16,2069.63 2526.2,2069.03L2526.2,2068.48C2524.33,2068.66 2522.45,2068.84 2520.54,2069.03L2520.54,2067.37C2519.62,2067.18 2518.66,2067 2517.7,2066.81C2517.54,2065.52 2517.33,2064.23 2517.16,2062.93C2518.41,2063.19 2518.78,2063.29 2519.41,2064.04L2519.99,2064.04C2520.16,2063.49 2520.37,2062.93 2520.54,2062.38L2519.99,2062.38C2519.32,2061.24 2519.08,2061.38 2518.87,2059.6C2520.41,2059.18 2520.16,2059.47 2520.54,2057.94L2522.24,2057.94C2521.62,2055.67 2521.16,2057.07 2520.54,2056.28L2520.54,2055.72C2521.45,2055.34 2521.62,2053.23 2521.66,2051.84C2520.16,2052.22 2520.41,2052.59 2518.87,2052.95L2518.87,2054.61L2517.7,2054.61L2517.7,2055.72C2515.95,2055.18 2516.87,2055.42 2514.91,2055.72C2514.54,2057.39 2514.16,2059.05 2513.79,2060.71L2514.91,2060.71C2514.7,2062.33 2514.16,2067.65 2514.91,2068.48L2514.91,2069.03C2514.24,2068.55 2514.83,2069.1 2514.33,2068.48C2512.91,2068.63 2512.45,2068.4 2512.08,2069.59L2512.62,2069.59L2512.62,2070.14L2511.49,2070.14C2511.33,2069.59 2511.12,2069.03 2510.95,2068.48L2508.12,2068.48L2508.12,2070.14C2506.54,2069.44 2505.62,2069 2503.04,2069.03C2502.7,2071.09 2502.7,2070.3 2503.04,2072.36C2501.7,2072.49 2501.62,2072.59 2500.74,2072.92L2500.74,2071.8L2501.91,2071.8L2501.91,2070.14L2502.45,2070.14L2502.45,2069.59L2500.2,2069.59C2499.99,2070.14 2499.83,2070.69 2499.62,2071.25L2500.2,2071.25L2500.2,2071.8C2499.83,2071.99 2499.45,2072.17 2499.08,2072.36C2497.66,2074.03 2498.2,2073.55 2498.49,2075.68C2497.37,2075.5 2496.24,2075.32 2495.12,2075.13C2494.75,2076.24 2495.2,2075.61 2494.54,2076.24C2493.7,2076.91 2490.49,2076.48 2488.33,2076.24C2488.03,2077.65 2487.53,2078.79 2486.62,2079.57C2485.58,2080.63 2483.74,2080.74 2481.54,2080.68L2481.54,2081.79C2479.29,2081.34 2478.58,2080.44 2476.99,2079.57L2476.99,2078.46L2475.87,2078.46C2475.7,2079.94 2475.49,2081.42 2475.33,2082.9C2474.2,2082.71 2473.04,2082.52 2471.91,2082.34L2471.91,2081.79C2470.95,2081.15 2471.12,2081.45 2470.79,2080.12L2465.7,2080.12C2465.91,2080.68 2466.08,2081.23 2466.24,2081.79L2465.7,2081.79C2465.49,2082.34 2465.33,2082.9 2465.12,2083.45L2465.7,2083.45C2465.91,2084 2466.08,2084.56 2466.24,2085.11C2466.83,2085.3 2467.41,2085.48 2467.95,2085.66C2468.16,2086.04 2468.33,2086.41 2468.54,2086.78L2469.66,2086.22L2469.66,2088.99L2470.79,2088.99C2470.2,2090.51 2469.91,2092.36 2470.79,2093.98C2471.16,2094.17 2471.54,2094.36 2471.91,2094.54C2471.74,2095.1 2471.54,2095.65 2471.37,2096.2L2470.79,2096.2C2470.99,2096.95 2471.16,2097.68 2471.37,2098.42C2470.79,2098.61 2470.25,2098.79 2469.66,2098.98C2469.2,2100.92 2468.2,2102 2467.41,2103.41L2467.41,2104.53L2466.83,2104.53C2466.04,2105.51 2465.49,2105.84 2465.12,2107.3C2463.33,2106.53 2462.49,2105.72 2460.04,2105.63C2459.87,2105.08 2459.66,2104.53 2459.49,2103.97C2457.29,2103.91 2456.16,2103.8 2454.95,2102.86L2454.41,2101.75L2452.7,2101.75L2452.7,2101.2L2452.12,2101.2L2452.12,2100.09C2449.95,2099.83 2449.79,2099.18 2447.62,2098.98C2447.41,2098.42 2447.24,2097.87 2447.04,2097.32C2445.66,2097.09 2444.45,2096.41 2442.49,2096.76C2442.45,2096.78 2442.29,2097.68 2441.37,2097.32L2441.37,2096.76C2440.04,2096.9 2439.99,2096.99 2439.12,2097.32C2439.33,2098.42 2439.49,2099.53 2439.66,2100.64C2439.62,2101.42 2439.04,2100.42 2439.12,2101.2L2439.66,2101.75L2438.54,2101.75C2438.41,2103.02 2438.45,2103.18 2437.99,2103.97L2437.41,2103.97C2437.24,2105.26 2437.04,2106.56 2436.87,2107.85C2436.12,2108.41 2435.33,2108.96 2434.58,2109.51L2434.58,2110.62C2432.7,2112.1 2430.83,2113.59 2428.95,2115.06L2428.95,2116.72C2429.49,2116.54 2430.08,2116.36 2430.66,2116.17C2430.12,2117.16 2429.83,2117.03 2429.49,2118.39L2430.66,2118.39C2430.24,2118.94 2429.87,2119.5 2429.49,2120.05L2428.95,2120.05L2428.95,2121.72L2428.37,2121.72C2427.87,2122.43 2427.95,2122.8 2427.24,2123.38C2427.87,2125.64 2427.49,2124.05 2428.95,2125.04L2428.95,2125.6C2429.49,2125.78 2430.08,2125.96 2430.66,2126.15L2430.66,2126.71C2431.2,2126.52 2431.74,2126.33 2432.33,2126.15L2432.33,2127.26L2434.04,2127.26C2434.62,2129.78 2435.7,2131.71 2435.7,2135.02L2438.54,2135.02L2439.12,2133.91C2439.12,2133.91 2440.91,2134.7 2441.95,2134.47C2442.08,2134.43 2442.12,2133.66 2443.08,2133.91L2443.08,2134.47C2444.04,2134.65 2444.95,2134.83 2445.91,2135.02L2445.91,2135.59C2446.66,2135.76 2447.41,2135.94 2448.16,2136.14L2448.16,2136.69L2450.45,2136.69L2450.45,2137.24L2450.99,2137.24L2450.99,2136.69L2451.54,2136.69L2452.12,2137.24L2452.12,2136.14C2453.41,2135.97 2453.58,2136.03 2454.41,2135.59L2454.41,2135.02L2458.33,2135.02C2458.54,2134.47 2458.74,2133.91 2458.91,2133.36C2459.79,2132.28 2461.62,2131.86 2463.45,2131.69L2463.45,2129.48L2462.87,2129.48C2463.03,2128.55 2463.24,2127.63 2463.45,2126.71C2464.74,2126.11 2465.83,2125.39 2466.83,2124.49L2467.41,2123.38C2468.24,2122.86 2469.12,2123.61 2469.66,2122.83L2469.66,2121.72C2473.04,2121.35 2476.45,2120.98 2479.83,2120.61C2480.41,2118.57 2480.99,2116.54 2481.54,2114.51L2482.66,2114.51L2483.24,2113.4C2484.74,2112.8 2487.29,2114.49 2487.74,2115.06C2489.29,2115.49 2489.03,2115.19 2489.45,2116.72C2491.16,2116.91 2492.83,2117.1 2494.54,2117.28L2495.12,2116.17C2496.79,2115.8 2498.49,2115.43 2500.2,2115.06C2500.57,2114.51 2500.95,2113.95 2501.33,2113.4C2501.91,2113.21 2502.45,2113.03 2503.04,2112.84C2504.12,2114.51 2503.54,2113.09 2504.7,2113.95C2505.45,2114.88 2506.24,2115.8 2506.99,2116.72L2507.54,2116.72C2507.75,2118.02 2507.91,2119.31 2508.12,2120.61C2508.08,2121.38 2507.41,2120.39 2507.54,2121.16C2507.91,2121.35 2508.29,2121.53 2508.66,2121.72C2508.87,2122.64 2509.08,2123.57 2509.24,2124.49C2510.37,2125.41 2511.49,2126.33 2512.62,2127.26C2512.83,2128 2512.99,2128.74 2513.2,2129.48C2514.54,2130.4 2515.83,2131.33 2517.16,2132.26L2518.28,2132.26C2518.87,2133.18 2519.41,2134.1 2519.99,2135.02C2520.54,2135.21 2521.12,2135.39 2521.66,2135.59L2521.66,2136.69L2522.24,2136.69C2522.08,2137.24 2521.87,2137.79 2521.66,2138.35C2522.62,2138.54 2523.58,2138.72 2524.49,2138.9C2524.91,2140.94 2525.24,2142.98 2525.66,2145.01L2525.07,2145.01L2525.07,2146.11L2524.49,2146.11L2524.49,2147.23L2523.95,2147.23C2523.74,2147.78 2523.58,2148.34 2523.37,2148.89C2523.95,2149.08 2524.49,2149.26 2525.07,2149.44C2525.57,2148.59 2525.91,2148.27 2526.79,2147.78L2526.79,2145.56L2528.45,2145.56C2528.66,2145.01 2528.83,2144.45 2529.04,2143.9L2529.62,2143.9C2530.16,2142.07 2527.83,2142.48 2527.33,2141.68L2527.33,2140.57C2528.41,2139.66 2528.29,2138.64 2529.62,2137.79L2529.62,2137.24C2531.78,2137.83 2531.37,2138.9 2533.58,2139.47C2533.58,2139.47 2533.58,2141.59 2534.12,2140.57L2534.12,2140.02C2535.24,2139.68 2534.62,2140.1 2535.24,2139.47C2533.66,2138.46 2533.99,2136.87 2532.99,2136.14L2531.87,2136.14C2530.78,2135.5 2525.53,2132.39 2526.2,2130.59L2526.79,2130.59L2526.79,2130.03C2525.49,2129.31 2523.87,2130.22 2522.83,2129.48C2522.62,2128.93 2522.45,2128.37 2522.24,2127.81C2521.66,2127.44 2521.12,2127.08 2520.54,2126.71L2520.54,2125.6L2519.99,2125.6C2519.78,2124.86 2519.62,2124.12 2519.41,2123.38L2518.87,2123.38L2518.87,2120.61L2518.28,2120.61C2518.12,2120.05 2517.91,2119.5 2517.7,2118.94C2517.16,2118.76 2516.62,2118.57 2516.04,2118.39C2515.83,2116.91 2515.66,2115.43 2515.45,2113.95C2515.49,2113.85 2516.2,2113.75 2516.04,2112.84L2515.45,2112.84L2515.45,2110.62C2518.16,2110.54 2519.04,2109.91 2521.12,2109.51C2521.45,2110.36 2521.58,2110.41 2521.66,2111.74L2520.54,2111.74C2520.87,2113.67 2521.12,2112.77 2520.54,2114.51L2521.12,2114.51C2521.62,2115.13 2521.04,2114.59 2521.66,2115.06L2521.66,2114.51L2522.24,2114.51L2522.24,2112.84L2522.83,2112.84L2522.83,2112.29L2523.37,2112.29L2523.37,2112.84C2525.41,2114.23 2523.74,2113.98 2524.49,2116.17L2525.07,2116.17L2525.07,2117.84L2525.66,2117.84L2525.66,2120.05L2526.2,2120.05C2526.83,2120.95 2527.04,2120.97 2527.33,2122.27C2529.95,2122.64 2529.95,2123.96 2532.41,2124.49L2532.41,2125.6L2532.99,2125.6C2533.58,2126.33 2534.12,2127.08 2534.7,2127.81C2535.24,2127.63 2535.83,2127.44 2536.41,2127.26C2537.29,2128 2535.74,2128.39 2538.07,2128.93L2538.07,2130.03C2539.62,2130.45 2539.37,2130.16 2539.79,2131.69C2541.37,2134.05 2537.12,2138.33 2540.91,2140.57C2540.41,2141.41 2540.07,2141.74 2539.2,2142.23L2539.79,2143.35L2542.04,2143.35L2542.04,2144.45L2543.2,2144.45L2543.2,2145.56C2543.91,2145.75 2544.7,2145.93 2545.45,2146.11L2545.45,2146.67L2543.74,2146.67C2544.24,2147.69 2544.62,2148.11 2544.87,2149.44C2547.7,2149.63 2550.53,2149.81 2553.37,2150L2553.37,2151.11C2550.91,2150.74 2548.45,2150.36 2545.99,2150C2545.66,2151.11 2546.08,2150.47 2545.45,2151.11C2545.66,2152.87 2545.87,2152.78 2546.58,2153.88L2547.12,2153.88C2546.95,2154.62 2546.74,2155.36 2546.58,2156.1L2547.12,2156.1L2547.12,2156.65C2547.7,2156.46 2548.29,2156.28 2548.83,2156.1C2549.03,2156.65 2549.2,2157.2 2549.41,2157.76C2550.16,2157.58 2550.91,2157.39 2551.66,2157.2L2551.66,2157.76L2552.2,2157.76C2551.87,2156.03 2551.24,2155.28 2551.07,2153.32C2552.45,2153.68 2552.16,2153.49 2552.79,2154.43L2553.91,2154.43C2553.45,2153.4 2553.04,2152.98 2552.79,2151.67C2554.12,2151.84 2555.41,2152.03 2556.74,2152.21C2556.37,2150.11 2556.37,2150.44 2556.74,2148.34C2554.66,2147.8 2553.87,2146.47 2552.2,2145.56C2552.2,2142.48 2551.53,2141.17 2551.07,2138.9C2552.2,2138.57 2551.57,2138.98 2552.2,2138.35C2553.83,2139.96 2552.7,2141.47 2555.62,2142.23L2555.62,2140.57L2555.04,2140.57L2555.04,2140.02C2556.12,2140.48 2556.54,2140.87 2557.87,2141.12L2557.87,2139.47L2556.16,2139.47L2556.16,2138.9C2555.54,2138.28 2555.95,2138.91 2555.62,2137.79C2556.37,2137.5 2555.45,2137.58 2556.16,2137.24L2557.87,2137.24L2557.87,2136.69C2558.08,2136.93 2558.82,2136.55 2558.45,2137.24L2557.87,2137.24C2558.08,2138.39 2557.91,2137.76 2558.45,2138.35L2558.45,2138.9C2559.49,2139.26 2559.24,2138.59 2559.58,2138.35L2560.16,2138.35C2559.95,2137.79 2559.79,2137.24 2559.58,2136.69L2562.41,2136.69L2562.41,2137.24L2564.08,2137.24L2564.08,2137.79L2564.66,2137.79L2565.24,2136.69L2565.79,2136.69C2565.62,2137.24 2565.41,2137.79 2565.24,2138.35L2566.37,2138.35C2566.16,2139.47 2565.99,2140.57 2565.79,2141.68L2564.66,2142.23C2564.87,2142.79 2565.04,2143.35 2565.24,2143.9L2568.08,2143.9L2568.08,2144.45C2565.91,2144.82 2566.08,2144.74 2564.08,2145.01L2564.08,2146.11L2565.79,2146.11L2565.79,2145.56L2566.37,2145.56L2565.79,2146.67L2566.91,2146.67L2566.91,2145.56L2568.08,2145.56L2568.08,2148.89L2568.62,2148.89L2568.62,2149.44C2568.29,2149.32 2567.96,2149.16 2567.61,2149.07C2567.21,2148.96 2566.79,2148.92 2566.37,2148.89L2566.37,2151.11L2569.2,2151.11L2569.2,2151.67L2569.75,2151.67C2569.58,2152.4 2569.37,2153.13 2569.2,2153.88L2569.75,2153.88C2570.2,2154.68 2570.2,2154.81 2570.33,2156.1L2573.7,2156.1C2573.54,2156.65 2573.33,2157.2 2573.16,2157.76L2573.7,2157.2C2574.83,2157.39 2575.95,2157.58 2577.12,2157.76C2577.49,2158.31 2577.87,2158.87 2578.24,2159.43L2579.37,2159.43L2579.37,2159.99C2581.33,2160.52 2581.08,2159.09 2581.62,2158.87L2583.33,2158.87L2583.33,2156.65C2586.08,2156.93 2591.7,2159.69 2594.62,2158.87L2594.62,2158.31L2596.91,2158.31C2597.66,2157.39 2598.41,2156.46 2599.16,2155.54L2600.29,2155.54L2600.29,2154.98C2601.62,2155.18 2602.91,2155.36 2604.24,2155.54L2604.24,2154.98C2605.2,2154.4 2605.2,2154.23 2606.54,2153.88C2606.33,2155.18 2606.12,2156.46 2605.95,2157.76L2606.54,2157.76C2606.99,2158.39 2606.45,2157.85 2607.08,2158.31C2607.7,2156.49 2606.99,2155.91 2608.79,2154.43L2608.79,2153.88L2612.16,2153.88L2612.16,2153.32L2613.29,2153.32L2613.87,2152.21C2615.58,2152.4 2617.24,2152.59 2618.95,2152.77L2619.54,2151.67C2620.45,2151.47 2621.41,2151.29 2622.37,2151.11C2622.54,2150.55 2622.7,2150 2622.91,2149.44C2626.2,2148.8 2628.7,2147.27 2631.95,2147.23L2631.95,2146.11C2634.49,2145.85 2636.33,2145.2 2638.74,2146.11C2639.4,2145.2 2639.09,2145.34 2640.37,2145.03L2640.39,2144.98L2640.42,2144.94C2639.8,2143.71 2639.11,2143.18 2638.74,2141.68L2637.62,2141.68C2637.41,2138.51 2636.12,2138.11 2635.37,2135.59L2634.79,2135.59C2634.74,2134.68 2635.74,2134.91 2635.91,2134.47L2635.91,2131.69L2631.95,2131.69L2631.95,2131.15L2631.41,2131.15C2630.74,2130.06 2632.2,2129.4 2631.95,2128.93L2631.41,2128.93C2630.79,2126.87 2629.2,2126.95 2627.99,2125.6C2626.33,2125.96 2624.62,2126.33 2622.91,2126.71C2621.62,2128.18 2620.29,2129.66 2618.95,2131.15C2617.79,2131.7 2615.2,2130.55 2614.99,2130.59L2614.99,2131.15L2613.29,2131.15L2612.74,2132.26L2608.79,2132.26L2608.79,2131.69L2608.2,2131.69L2608.2,2132.26L2606.54,2132.26L2605.95,2131.15C2604.99,2131.33 2604.08,2131.51 2603.12,2131.69C2602.74,2131.15 2602.37,2130.59 2601.99,2130.03C2601.04,2130.22 2600.12,2130.4 2599.16,2130.59C2598.83,2129.48 2599.24,2130.11 2598.58,2129.48L2598.58,2128.93L2597.45,2128.93L2597.45,2129.48L2591.24,2129.48L2590.66,2130.59L2589.54,2130.59L2589,2131.69C2587.74,2132.51 2586.62,2133.01 2585.04,2133.36C2584.7,2134.46 2585.12,2133.84 2584.45,2134.47C2583.24,2135.57 2578.79,2135.09 2576.54,2135.02C2576.74,2136.9 2576.54,2136.81 2578.24,2137.24L2578.24,2137.79L2575.95,2137.79L2575.95,2139.47L2568.08,2139.47C2568.45,2137.91 2569.08,2137.35 2570.33,2136.69L2570.33,2136.14C2571.08,2136.32 2571.83,2136.5 2572.58,2136.69L2572.58,2136.14L2575.95,2136.14L2575.95,2135.02C2574.29,2134.66 2573.41,2133.97 2572.04,2133.36C2571.49,2132.1 2570.99,2131.21 2570.91,2129.48L2569.75,2129.48L2569.75,2128.93C2570.62,2129.01 2570.62,2127.36 2570.91,2126.71L2571.45,2126.71C2571.24,2126.33 2571.08,2125.96 2570.91,2125.6L2571.45,2125.6L2571.45,2124.49L2573.16,2124.49L2573.16,2123.93L2573.7,2123.93C2573.54,2123.57 2573.2,2121.82 2573.7,2120.61C2574.16,2119.55 2575.41,2118.34 2575.95,2117.28L2577.12,2117.28C2577.08,2115.69 2576.91,2114.91 2576.54,2113.95C2578.41,2112.89 2579.62,2110.39 2580.49,2108.41C2581.45,2108.22 2582.37,2108.04 2583.33,2107.85L2583.33,2107.3C2584.66,2107.43 2584.74,2107.53 2585.58,2107.85C2585.12,2108.57 2585.2,2108.51 2584.45,2108.96C2585.91,2110.43 2588.12,2109.94 2590.12,2109.51C2590.58,2110.14 2590.04,2109.6 2590.66,2110.07C2590.12,2110.81 2589.54,2111.55 2589,2112.29C2588.41,2112.47 2587.87,2112.66 2587.29,2112.84L2587.29,2113.95L2590.66,2113.95C2590.87,2115.24 2591.08,2116.54 2591.24,2117.84L2592.95,2117.84C2593.7,2116.91 2594.45,2115.99 2595.2,2115.06L2596.33,2115.06L2596.91,2113.95L2597.45,2113.95L2597.45,2112.84L2595.79,2112.84C2595.58,2112.29 2595.41,2111.74 2595.2,2111.18C2593.87,2110.82 2594.16,2111.02 2593.49,2110.07C2592.87,2109.6 2593.41,2110.14 2592.95,2109.51C2593.7,2108.96 2594.45,2108.41 2595.2,2107.85L2595.2,2107.3L2596.33,2107.3C2596.7,2106.74 2597.08,2106.19 2597.45,2105.63C2598.58,2105.45 2599.74,2105.26 2600.87,2105.08L2601.41,2103.97C2601.99,2103.78 2602.54,2103.6 2603.12,2103.41L2603.7,2102.3C2604.08,2102.49 2604.45,2102.68 2604.83,2102.86L2604.83,2100.64C2605.54,2099.17 2607.45,2098.21 2609.33,2097.87L2609.33,2095.1C2608.95,2094.91 2608.58,2094.72 2608.2,2094.54C2607.95,2093.8 2608.41,2094.43 2608.79,2093.98L2608.79,2092.88L2608.2,2092.88C2608.58,2092.14 2608.95,2091.4 2609.33,2090.66C2608.62,2090.2 2608.66,2090.28 2608.2,2089.55C2605.79,2089.37 2603.33,2089.18 2600.87,2088.99C2600.49,2088.44 2600.12,2087.89 2599.74,2087.33C2598.2,2086.89 2598.41,2088.3 2598.04,2088.44ZM2572.58,2157.2L2569.75,2157.2L2569.75,2158.31L2572.04,2158.31L2572.04,2157.76L2572.58,2157.76L2572.58,2157.2ZM2562.41,2156.65C2562.91,2157.28 2562.33,2156.74 2562.99,2157.2C2563.45,2156.58 2562.91,2157.12 2563.54,2156.65C2563.16,2155.34 2563.37,2155.61 2562.41,2154.98L2561.83,2156.1L2561.83,2156.65L2562.41,2156.65ZM2558.99,2154.98L2557.87,2154.98L2557.87,2156.1L2558.99,2156.1L2558.99,2154.98ZM2517.7,2148.34L2517.7,2148.89C2516.12,2149.32 2514.83,2147.99 2514.33,2147.23C2512.29,2147.21 2511.12,2147.3 2509.83,2147.78C2510.58,2149.09 2511.41,2149.67 2513.2,2150L2513.2,2151.11C2513.57,2151.76 2515.41,2151.78 2516.04,2152.21L2516.04,2152.77C2517.29,2153.75 2518.08,2154.64 2519.99,2154.98C2519.99,2152.03 2520.58,2149.66 2522.24,2148.34L2522.24,2147.78C2521.49,2147.96 2520.74,2148.15 2519.99,2148.34C2519.62,2148.11 2519.91,2147.48 2518.87,2147.78L2518.87,2148.34L2517.7,2148.34ZM2567.49,2151.67L2566.91,2151.67L2566.91,2153.32L2568.62,2153.32L2568.62,2152.21C2567.49,2151.88 2568.16,2152.29 2567.49,2151.67ZM2544.28,2151.67L2542.62,2151.67C2543.24,2152.59 2542.95,2152.43 2544.28,2152.77L2544.28,2151.67ZM2560.7,2151.67L2558.99,2151.67C2559.66,2152.59 2559.37,2152.43 2560.7,2152.77L2560.7,2151.67ZM2558.45,2151.11C2557.78,2150.17 2558.12,2150.33 2556.74,2150C2557.08,2151.11 2556.66,2150.47 2557.32,2151.11L2557.32,2151.67L2558.99,2151.67C2558.54,2151.04 2559.08,2151.58 2558.45,2151.11ZM2543.74,2150C2543.2,2149.81 2542.62,2149.63 2542.04,2149.44L2542.04,2150.55L2543.74,2150.55L2543.74,2150ZM2564.66,2148.34L2564.08,2148.34L2564.08,2150C2564.34,2149.99 2564.59,2149.98 2564.85,2149.95C2565.02,2149.93 2565.19,2149.9 2565.35,2149.85C2565.36,2149.84 2565.38,2149.84 2565.39,2149.83C2565.45,2149.8 2565.55,2149.75 2565.52,2149.66C2565.51,2149.65 2565.51,2149.64 2565.5,2149.63C2565.49,2149.61 2565.47,2149.59 2565.46,2149.58C2565.43,2149.55 2565.4,2149.53 2565.37,2149.51C2565.35,2149.5 2565.32,2149.48 2565.29,2149.47C2565.29,2149.47 2565.25,2149.44 2565.24,2149.44C2565.05,2149.44 2564.86,2149.44 2564.66,2149.44L2564.66,2148.34ZM2560.7,2142.79L2561.29,2142.79L2561.29,2142.23L2561.83,2142.23L2561.83,2141.68C2561.45,2141.49 2561.08,2141.31 2560.7,2141.12L2560.7,2142.79ZM2562.41,2138.9L2561.83,2138.9L2562.41,2139.47C2562.45,2139.56 2562.37,2140.51 2562.99,2140.02C2563.29,2138.93 2562.74,2138.73 2562.41,2138.35L2562.41,2138.9ZM2496.24,2136.14C2496.04,2136.87 2495.87,2137.61 2495.66,2138.35C2496.24,2138.78 2496.24,2139.04 2496.79,2139.47L2496.79,2140.02C2498.12,2139.59 2498.37,2139.1 2500.2,2138.9C2500.41,2137.77 2500.74,2137.81 2500.74,2137.79L2500.74,2135.02L2501.33,2135.02C2501.53,2134.28 2501.7,2133.54 2501.91,2132.8L2502.45,2132.8C2502.29,2131.69 2502.07,2130.59 2501.91,2129.48C2500.2,2129.85 2498.49,2130.22 2496.79,2130.59L2496.79,2136.14L2496.24,2136.14ZM2543.74,2139.47C2543.91,2139.09 2544.12,2138.72 2544.28,2138.35L2544.87,2138.35C2545.37,2138.59 2543.78,2139.43 2543.74,2139.47ZM2552.79,2135.59C2552.79,2135.59 2550.57,2135.5 2551.66,2135.02C2551.79,2134.26 2552.2,2135.25 2552.2,2134.47C2553.37,2134.8 2552.7,2134.39 2553.37,2135.02C2552.7,2135.5 2553.24,2134.94 2552.79,2135.59ZM2565.24,2134.47L2564.66,2135.02L2564.66,2132.8L2565.24,2132.8C2565.7,2132.18 2565.16,2132.72 2565.79,2132.26C2566.29,2133.28 2566.66,2133.69 2566.91,2135.02C2566.37,2134.83 2565.79,2134.65 2565.24,2134.47ZM2543.74,2135.02L2543.2,2135.02L2543.2,2133.36L2543.74,2133.36L2543.74,2135.02ZM2469.66,2131.15L2467.95,2131.15L2467.95,2132.26L2469.66,2132.26L2469.66,2131.15ZM2476.45,2129.48L2473.04,2129.48L2473.04,2130.59C2474.58,2130.97 2474.33,2131.33 2475.87,2131.69C2476.53,2131.08 2475.87,2131.45 2476.99,2131.15C2476.83,2130.59 2476.62,2130.03 2476.45,2129.48ZM2479.83,2129.48L2479.29,2129.48L2479.29,2130.59C2479.83,2130.77 2480.41,2130.95 2480.99,2131.15L2480.99,2130.03C2479.83,2129.7 2480.49,2130.11 2479.83,2129.48ZM2542.62,2128.93C2542.7,2128.99 2543.09,2129.14 2543.4,2129.33C2543.71,2129.52 2543.95,2129.76 2543.74,2130.03C2543.74,2130.03 2543.58,2130.12 2542.62,2128.93ZM2500.74,2127.26L2500.74,2128.37C2501.33,2128.18 2501.91,2128 2502.45,2127.81C2502.49,2126.4 2502.54,2125.86 2503.04,2125.04L2503.58,2125.04L2503.04,2124.49L2503.04,2123.93L2503.58,2123.93L2503.58,2121.72L2504.16,2121.72L2504.16,2120.61C2502.7,2121.45 2502.24,2122.42 2500.2,2122.83C2499.91,2124.34 2499.49,2125.99 2500.74,2127.26ZM2507.54,2121.72L2505.87,2121.72L2505.87,2122.83L2507.54,2122.83L2507.54,2121.72ZM2599.74,2112.84C2600.87,2112.51 2600.2,2112.92 2600.87,2112.29C2600.29,2112.1 2599.74,2111.92 2599.16,2111.74L2599.16,2113.4C2599.79,2112.92 2599.24,2113.47 2599.74,2112.84ZM2482.12,2074.58L2482.66,2075.68C2484.37,2075.5 2486.08,2075.32 2487.74,2075.13C2487.37,2074.39 2486.99,2073.65 2486.62,2072.92C2488.12,2071.99 2489.62,2071.06 2491.16,2070.14L2491.16,2068.48L2491.7,2068.48L2491.7,2067.92C2491.16,2067.63 2489.99,2066.26 2489.99,2066.26C2488.87,2065.74 2488.37,2066.73 2487.74,2066.81L2487.74,2066.26C2487.45,2065.93 2486.87,2066.43 2487.2,2065.7C2487.57,2065.52 2487.95,2065.34 2488.33,2065.15C2488.12,2063.86 2487.95,2062.56 2487.74,2061.26C2487.91,2060.81 2489.2,2061.23 2488.87,2059.6L2488.33,2059.6L2488.33,2057.94C2487.95,2057.75 2487.57,2057.57 2487.2,2057.39L2487.2,2056.28L2486.62,2056.28C2486.83,2054.61 2486.99,2052.95 2487.2,2051.28L2486.62,2051.28C2486.41,2050.55 2486.24,2049.8 2486.08,2049.07L2484.37,2049.07L2484.37,2048.51L2483.24,2048.51L2483.24,2047.96L2485.49,2047.96L2485.49,2046.85C2487.74,2046.33 2489.49,2044.65 2489.99,2042.41C2488.24,2042.2 2488.29,2042.01 2487.2,2041.31L2487.2,2040.75C2486.04,2040.23 2484.74,2041.46 2484.37,2041.31L2484.37,2040.75C2483.99,2040.04 2483.66,2040.97 2483.79,2040.19L2484.37,2040.19C2485.24,2038.86 2486.99,2038.26 2488.87,2037.98L2488.87,2036.87C2487.37,2036.59 2485.79,2036.17 2484.91,2035.2C2483.74,2036.14 2484.62,2036.35 2482.66,2036.87L2482.66,2037.98L2481.54,2037.98C2481.32,2038.53 2481.16,2039.08 2480.99,2039.64L2480.41,2039.64L2480.41,2040.19L2479.83,2040.19L2479.83,2037.42C2479.29,2037.61 2478.7,2037.79 2478.16,2037.98C2478.33,2039.74 2478.7,2040.08 2479.29,2041.31C2478.7,2041.49 2478.16,2041.67 2477.57,2041.86C2477.37,2042.41 2477.2,2042.97 2476.99,2043.52C2477.91,2043.86 2478.37,2044.03 2479.83,2044.08C2479.33,2044.92 2479.04,2045.24 2478.16,2045.74C2478.45,2046.34 2479.16,2046.65 2479.29,2046.85L2479.29,2048.51L2479.83,2048.51C2479.29,2049.25 2478.7,2049.99 2478.16,2050.73L2476.99,2050.73C2477.33,2051.84 2476.91,2051.2 2477.57,2051.84C2478.87,2053.12 2479.87,2052.67 2481.54,2052.4C2482.04,2053.02 2481.45,2052.48 2482.12,2052.95C2481.82,2053.43 2480.41,2054.59 2480.41,2054.61C2479.7,2056.33 2481.32,2056.41 2481.54,2056.83C2481.32,2057.39 2481.16,2057.94 2480.99,2058.49L2480.41,2058.49L2480.41,2060.16L2479.83,2060.16L2479.83,2061.26C2478.79,2060.8 2478.37,2060.42 2476.99,2060.16L2476.99,2058.49L2474.74,2058.49C2474.53,2060.15 2474.7,2060.01 2473.62,2060.71L2473.62,2061.26L2475.87,2061.26C2475.66,2063.06 2475.37,2062.89 2474.74,2064.04C2473.49,2064.4 2472.91,2064.45 2470.79,2064.59C2471.29,2065.22 2470.7,2064.68 2471.37,2065.15L2471.37,2066.26C2472.91,2065.04 2473.62,2067.61 2474.74,2068.48L2474.74,2069.03C2475.49,2068.84 2476.24,2068.66 2476.99,2068.48L2476.99,2069.59C2476.07,2069.78 2475.12,2069.96 2474.2,2070.14L2474.2,2069.59C2473.62,2069.4 2473.04,2069.21 2472.49,2069.03L2471.91,2070.14C2470.74,2070.67 2468.62,2071.04 2467.41,2071.25L2467.41,2072.36C2467.45,2072.43 2468.78,2071.48 2469.66,2071.8L2469.66,2072.36L2470.79,2072.36C2471.32,2072.61 2470.99,2073.34 2471.91,2073.47C2472.29,2072.92 2472.66,2072.36 2473.04,2071.8C2474.95,2072.54 2476.83,2073.28 2478.7,2074.02L2480.99,2074.02L2480.99,2074.58L2482.12,2074.58ZM2531.28,2064.59C2531.12,2065.15 2530.91,2065.7 2530.74,2066.26C2531.58,2066.59 2531.66,2066.7 2532.99,2066.81C2532.62,2065.5 2532.82,2065.78 2531.87,2065.15C2531.37,2064.53 2531.95,2065.07 2531.28,2064.59ZM2521.66,2066.81L2522.24,2066.81C2521.91,2065.7 2522.33,2066.33 2521.66,2065.7L2521.66,2066.81ZM2526.2,2060.16L2525.07,2060.16L2525.07,2061.26C2524.33,2061.08 2523.58,2060.9 2522.83,2060.71C2522.45,2061.42 2522.29,2061.89 2521.66,2062.38C2521.87,2062.93 2522.08,2063.49 2522.24,2064.04C2522.83,2064.23 2523.37,2064.41 2523.95,2064.59C2524.29,2063.74 2524.41,2063.69 2524.49,2062.38L2525.66,2062.38C2525.79,2061.07 2525.87,2061.01 2526.2,2060.16ZM2545.45,2000.82L2545.45,2001.38C2544.28,2002.03 2543.28,2002.99 2542.62,2004.14L2541.49,2004.14C2541.04,2005.65 2541.33,2005.4 2539.79,2005.81C2540.41,2006.43 2539.79,2006.05 2540.91,2006.36L2540.91,2006.92L2538.66,2006.92C2538.45,2007.47 2538.29,2008.03 2538.07,2008.58C2537.53,2008.95 2536.95,2009.32 2536.41,2009.7L2536.95,2010.8L2535.83,2010.8C2535.74,2012.1 2535.91,2012.9 2535.24,2013.57L2534.12,2013.57C2534.33,2014.13 2534.49,2014.68 2534.7,2015.24C2534.66,2015.29 2534.37,2015.13 2534.12,2016.34L2532.99,2016.34C2532.7,2017.56 2532.54,2017.81 2531.87,2018.56L2531.28,2018.56L2531.28,2019.67C2530.74,2019.49 2530.16,2019.3 2529.62,2019.12C2529.58,2019.13 2529.58,2019.52 2528.45,2019.67C2528.16,2020.97 2527.66,2021.75 2526.79,2022.45L2526.79,2023C2527.7,2022.81 2528.66,2022.63 2529.62,2022.45L2529.62,2021.89L2530.16,2021.89C2529.99,2022.45 2529.79,2023 2529.62,2023.56C2527.7,2023.86 2528.16,2023.64 2526.79,2024.11C2526.57,2023.56 2526.41,2023 2526.2,2022.45C2523.58,2023.07 2523.29,2024.54 2519.99,2024.66C2520.16,2025.22 2520.37,2025.78 2520.54,2026.33C2519.62,2026.14 2518.66,2025.96 2517.7,2025.78L2517.7,2026.88C2515.58,2026.94 2515.37,2026.78 2514.91,2028.55C2515.66,2028.74 2516.41,2028.91 2517.16,2029.1L2517.16,2029.66C2515.54,2030.41 2515.2,2028.68 2514.91,2028.55L2513.79,2028.55C2513.95,2029.29 2514.16,2030.03 2514.33,2030.76C2513.95,2030.95 2513.57,2031.13 2513.2,2031.32C2513.41,2031.69 2513.57,2032.06 2513.79,2032.43L2513.2,2032.43L2513.2,2035.76C2513.16,2035.82 2512.87,2035.64 2512.62,2036.87L2514.33,2036.87L2514.33,2036.31L2515.45,2036.31L2515.45,2036.87L2514.91,2036.87L2514.91,2037.42L2513.2,2037.42L2513.2,2037.98L2512.62,2037.98C2512.45,2038.9 2512.24,2039.83 2512.08,2040.75L2512.62,2041.31C2512.08,2041.67 2511.49,2042.04 2510.95,2042.41L2510.95,2045.18L2512.08,2045.74C2512.24,2046.29 2512.45,2046.85 2512.62,2047.4C2513.53,2048.13 2513.2,2046.86 2514.33,2048.51C2515.29,2048.32 2516.2,2048.14 2517.16,2047.96L2517.16,2047.4L2518.87,2047.4C2519.24,2046.85 2519.62,2046.29 2519.99,2045.74L2521.12,2045.74L2521.66,2044.63C2522.54,2044.14 2523.45,2044.86 2523.95,2044.08L2523.95,2041.86L2524.49,2041.86L2524.49,2044.63C2525.07,2044.81 2525.66,2045 2526.2,2045.18L2526.2,2046.29C2525.07,2045.96 2525.7,2046.37 2525.07,2045.74L2524.49,2045.74C2524.7,2046.85 2524.91,2047.96 2525.07,2049.07L2526.2,2049.07C2525.57,2051.52 2525.24,2050.63 2525.07,2053.5L2526.2,2053.5C2526.29,2054.95 2526.45,2055.39 2526.79,2056.28L2526.2,2056.28L2526.2,2056.83L2527.33,2056.83C2527.54,2057.39 2527.7,2057.94 2527.91,2058.49L2526.79,2058.49L2526.79,2062.38L2527.33,2062.38L2527.33,2062.93L2526.79,2062.93L2526.79,2064.04L2530.16,2064.04C2530.45,2061.71 2530.95,2062.24 2531.87,2060.71C2533.74,2060.9 2535.62,2061.08 2537.53,2061.26C2537.37,2060.25 2536.16,2057.84 2536.95,2056.28C2537.53,2055.91 2538.07,2055.53 2538.66,2055.17L2538.66,2054.61L2538.07,2054.61L2538.07,2054.06L2538.66,2054.06L2538.66,2052.4L2539.2,2052.4L2539.2,2050.73L2539.79,2050.73L2539.2,2049.62C2539.99,2049.25 2540.74,2048.88 2541.49,2048.51L2541.49,2047.4C2541.87,2047.58 2542.24,2047.78 2542.62,2047.96L2542.62,2047.4L2543.2,2047.4L2543.74,2046.29L2543.2,2046.29L2543.2,2045.74L2543.74,2045.74C2544.37,2044.81 2544.08,2044.97 2545.45,2044.63C2545.16,2043.41 2544.58,2041.44 2543.74,2040.75C2542.87,2040.03 2543.16,2041.3 2542.04,2039.64L2541.49,2039.64C2541.12,2038.85 2542.04,2038.53 2542.04,2038.53C2542.16,2036.81 2541.12,2035.9 2542.04,2034.09C2542.41,2033.91 2542.78,2033.72 2543.2,2033.54L2543.2,2032.98L2542.62,2032.98L2542.62,2030.76C2543.2,2030.58 2543.74,2030.4 2544.28,2030.21C2545.25,2028.91 2546.2,2027.62 2547.12,2026.33C2547.91,2025.69 2548.95,2026.37 2549.95,2025.78C2550.16,2025.22 2550.33,2024.66 2550.53,2024.11C2551.29,2023.56 2552.04,2023 2552.79,2022.45C2552.62,2021.89 2552.41,2021.34 2552.2,2020.79L2552.79,2019.67L2552.2,2019.67L2552.2,2019.12C2552.62,2018.93 2552.99,2018.75 2553.37,2018.56C2553.54,2017.64 2553.74,2016.71 2553.91,2015.8C2555.24,2015.55 2556.04,2015 2557.87,2015.24L2557.87,2015.8L2558.45,2015.8L2558.99,2015.24C2559.37,2015.8 2559.79,2016.34 2560.16,2016.9L2560.7,2016.9L2560.7,2018.56L2561.29,2018.56L2561.29,2019.12C2560.7,2018.93 2560.16,2018.75 2559.58,2018.56C2558.74,2022.8 2557.37,2022.78 2555.04,2025.22C2554.49,2025.82 2554.66,2026.3 2553.91,2026.88L2553.91,2027.43L2552.2,2027.43C2551.95,2029.62 2550.95,2032.91 2551.66,2035.76L2552.2,2035.76C2552.45,2037.2 2550.62,2038.44 2552.2,2040.19C2552.7,2041.87 2553.29,2042.1 2555.04,2042.41L2555.04,2044.08L2560.16,2044.08C2560.33,2043.7 2560.54,2043.34 2560.7,2042.97L2562.99,2042.97L2563.54,2041.86L2566.91,2041.86L2566.91,2041.31C2567.49,2041.12 2568.08,2040.93 2568.62,2040.75C2568.83,2040.19 2568.99,2039.64 2569.2,2039.08L2570.33,2039.08C2570.99,2038.68 2570.99,2036.98 2571.45,2036.31C2571.83,2036.13 2572.2,2035.94 2572.58,2035.76C2573.79,2034.02 2574.41,2032.1 2575.95,2030.76C2575.7,2028.29 2574.95,2027.21 2573.7,2025.78C2573.33,2025.59 2572.95,2025.4 2572.58,2025.22C2572.79,2024.11 2572.95,2023 2573.16,2021.89L2572.04,2021.89L2572.04,2019.67L2570.91,2019.67C2571.08,2017.64 2571.24,2015.61 2571.45,2013.57C2571.08,2013.39 2570.7,2013.2 2570.33,2013.02L2570.33,2011.36L2569.75,2011.36L2569.75,2010.24L2569.2,2010.24C2569.37,2009.32 2569.58,2008.4 2569.75,2007.47L2570.33,2007.47C2571.29,2004.56 2568.99,2003.17 2567.49,2002.49C2567.49,2000.99 2567.29,1999.34 2568.08,1998.61L2569.2,1998.61L2568.62,1997.49L2569.2,1997.49C2569.75,1996.76 2570.33,1996.01 2570.91,1995.27C2570.29,1994.96 2569.95,1994.28 2569.75,1994.16L2568.08,1994.16L2568.08,1993.61L2566.91,1993.61L2566.91,1993.06C2568.91,1993.4 2568.49,1993.7 2570.33,1993.06C2570.49,1992.5 2570.7,1991.94 2570.91,1991.39L2569.75,1991.39L2569.75,1990.28C2567.54,1990.02 2566.99,1989.11 2566.37,1991.39L2565.79,1991.39L2565.79,1988.62L2565.24,1988.62C2564.66,1989.83 2564.24,1990.18 2564.08,1991.94L2563.54,1991.94L2563.54,1990.83L2562.41,1990.83C2562.12,1992.04 2562.03,1992.41 2561.29,1993.06L2561.29,1993.61L2560.7,1993.61L2560.7,1990.83L2561.83,1990.83L2561.83,1989.17L2561.29,1989.17L2561.29,1989.73L2560.16,1989.17C2559.83,1990.02 2559.7,1990.07 2559.58,1991.39L2556.74,1991.39C2556.74,1990.83 2556.82,1990.28 2556.74,1989.73C2556.73,1989.65 2556.6,1989.77 2556.53,1989.8C2556.38,1989.84 2556.24,1989.89 2556.1,1989.94C2555.75,1990.05 2555.39,1990.17 2555.04,1990.28L2555.04,1991.39L2555.62,1991.39C2555.78,1992.32 2555.08,1992.36 2555.04,1992.5L2555.04,1995.27C2554.49,1995.09 2553.91,1994.9 2553.37,1994.71L2553.37,1995.27C2552.79,1995.09 2552.2,1994.9 2551.66,1994.71L2551.66,1995.27L2551.07,1995.27L2551.07,1993.61C2550.66,1994.28 2549.41,1994.15 2548.29,1994.16L2548.29,1995.83L2548.83,1995.83L2548.83,1996.94C2548.08,1996.56 2547.33,1996.2 2546.58,1995.83C2546.2,1996.38 2545.82,1996.94 2545.45,1997.49L2545.99,1997.49C2545.99,1997.49 2545.95,1999.59 2546.58,1998.61L2546.58,1997.49L2547.12,1997.49L2547.12,1999.15L2546.58,1999.15C2545.28,2000 2543.87,1998.47 2542.04,1998.05L2542.04,1999.15L2540.91,1999.15L2540.91,2000.82L2538.66,2000.82L2538.07,2001.92L2536.95,2001.92C2537.7,2003.67 2538.37,2002.24 2540.91,2001.92L2540.91,2000.82L2545.45,2000.82ZM2458.33,2060.71L2458.33,2061.26C2461.87,2061.26 2465.79,2061.34 2468.54,2061.82C2469.87,2059.14 2471.83,2057.44 2471.91,2053.5C2474.12,2054.13 2472.91,2053.91 2474.74,2052.95L2474.74,2048.51C2474.2,2048.32 2473.62,2048.14 2473.04,2047.96C2473.04,2047.96 2472.79,2048.87 2471.91,2048.51L2471.37,2047.4C2470.62,2047.21 2469.82,2047.03 2469.08,2046.85C2468.62,2047.56 2468.7,2047.51 2467.95,2047.96C2468.62,2048.89 2468.28,2048.73 2469.66,2049.07C2467.91,2050.61 2464.57,2048.89 2462.87,2048.51L2462.87,2050.73L2462.29,2050.73L2462.29,2051.28L2461.16,2051.28C2461.37,2052.02 2461.53,2052.76 2461.74,2053.5L2462.87,2053.5L2462.87,2054.06C2462.12,2054.24 2461.37,2054.43 2460.62,2054.61C2460.95,2055.72 2460.54,2055.09 2461.16,2055.72L2461.16,2056.28C2460.62,2056.09 2460.04,2055.91 2459.49,2055.72L2459.49,2056.83C2458.87,2057.46 2457.95,2057.36 2456.66,2057.39L2456.66,2059.05C2457.04,2059.74 2457.2,2058.49 2457.2,2058.49C2457.58,2058.68 2457.95,2058.86 2458.33,2059.05C2458.16,2059.6 2457.95,2060.16 2457.79,2060.71L2458.33,2060.71ZM2544.87,2053.5L2543.2,2053.5L2543.2,2054.06L2542.62,2054.06C2542.41,2055.17 2542.24,2056.28 2542.04,2057.39L2543.2,2057.39L2543.2,2056.28C2543.28,2056.01 2544.2,2056.11 2544.28,2055.17L2543.74,2055.17L2543.74,2054.61L2544.87,2054.61L2544.87,2053.5ZM2477.57,2054.06C2476.99,2054.24 2476.45,2054.43 2475.87,2054.61L2475.87,2055.72L2477.57,2055.72L2477.57,2054.06ZM2555.62,2048.51L2555.04,2048.51L2555.04,2047.96C2554.49,2048.14 2553.91,2048.32 2553.37,2048.51C2553.54,2049.25 2553.74,2049.99 2553.91,2050.73C2553.54,2050.91 2553.16,2051.1 2552.79,2051.28L2552.79,2052.4C2554.04,2052.13 2554.37,2052.04 2555.04,2051.28L2555.62,2051.28C2555.41,2050.73 2555.24,2050.17 2555.04,2049.62L2555.62,2049.62L2555.62,2048.51ZM2476.99,2047.96L2476.99,2048.51L2477.57,2048.51L2478.16,2047.4C2478.08,2046.62 2478.08,2047.47 2477.57,2046.85C2476.95,2047.47 2477.57,2047.08 2476.45,2047.4L2476.45,2047.96L2476.99,2047.96ZM2476.99,2045.18L2475.33,2045.18L2474.74,2046.29C2474.83,2047.07 2474.83,2046.23 2475.33,2046.85L2475.33,2047.4L2475.87,2047.4C2476.24,2046.7 2476.41,2046.22 2476.99,2045.74L2476.99,2045.18ZM2547.12,2042.41C2547.2,2043.19 2547.2,2042.34 2547.7,2042.97C2548.16,2043.59 2547.62,2043.05 2548.29,2043.52C2548.74,2042.9 2548.2,2043.43 2548.83,2042.97C2548.45,2041.65 2548.66,2041.93 2547.7,2041.31L2547.12,2042.41ZM2478.16,2036.31L2476.45,2036.31L2476.45,2037.98L2475.87,2037.98L2475.87,2039.64L2476.45,2039.64C2476.91,2038.66 2477.33,2037.53 2478.16,2036.87L2478.16,2036.31ZM2491.7,2034.09L2489.99,2034.09L2489.99,2034.65L2488.87,2034.65L2488.87,2035.2C2489.54,2035.84 2489.12,2035.2 2489.45,2036.31L2489.99,2036.31L2489.99,2035.76C2491.58,2035.34 2491.29,2035.62 2491.7,2034.09ZM2481.54,2034.09C2479.7,2034.31 2479.87,2034.59 2478.7,2035.2L2478.7,2036.31C2479.74,2035.85 2480.16,2035.46 2481.54,2035.2L2481.54,2034.09ZM2516.62,2032.98C2515.95,2033.61 2516.62,2033.22 2515.45,2033.54L2515.45,2032.98C2514.33,2032.65 2514.99,2033.06 2514.33,2032.43C2515.45,2032.1 2514.83,2032.51 2515.45,2031.87C2516.62,2032.21 2515.95,2031.8 2516.62,2032.43L2517.16,2032.43L2517.16,2032.98L2516.62,2032.98ZM2497.91,2029.66L2496.24,2029.66L2496.24,2030.21L2495.66,2030.21L2495.66,2030.76C2496.32,2031.4 2495.91,2030.76 2496.24,2031.87L2496.79,2031.87C2497.16,2031.32 2497.58,2030.76 2497.91,2030.21L2498.49,2030.21C2498.87,2029.18 2498.16,2029.43 2497.91,2029.1L2497.91,2029.66ZM2539.2,2013.02L2538.66,2013.02L2538.66,2011.91L2539.2,2011.91L2539.2,2013.02ZM2542.04,2009.7L2541.49,2009.7C2541.87,2009.13 2542.24,2008.58 2542.62,2008.03L2543.2,2008.03C2542.78,2008.58 2542.41,2009.13 2542.04,2009.7ZM2556.16,2000.82L2554.49,2000.82L2554.49,1999.71L2552.79,1999.71C2553.29,1999.09 2552.7,1999.62 2553.37,1999.15C2553.83,1998.43 2553.74,1998.49 2554.49,1998.05C2554.99,1999.08 2555.2,1999.66 2556.16,2000.27L2556.16,2000.82ZM2481.95,1993.13L2481.82,1992.85L2481.82,1992.9L2481.74,1992.87L2481.78,1992.82L2481.82,1992.85L2481.7,1992.74L2481.62,1992.6L2481.66,1992.49L2481.24,1992.38L2481.28,1992.29L2481.12,1992.23L2481.2,1992.08L2480.95,1991.8L2481.2,1991.5L2481.08,1991.46L2481.12,1991.36L2480.66,1991.17L2480.62,1991.27L2480.2,1991.16L2480.7,1990.71L2480.78,1990.75C2480.95,1990.31 2480.99,1990.23 2480.95,1989.89L2481.08,1989.93L2481.12,1989.83L2480.99,1989.79L2480.99,1989.67L2480.95,1989.6L2480.83,1989.78L2480.74,1989.74L2480.66,1989.84L2480.24,1989.44L2480.58,1989.22L2480.62,1989.24L2480.91,1988.71L2481.08,1988.71L2481.16,1988.63L2481.37,1988.76L2481.37,1988.6L2481.78,1988.46L2481.45,1988.4L2481.49,1988.29L2480.87,1988.18L2480.83,1988.28L2480.78,1988.26L2480.54,1988.49L2480.12,1988.34L2479.91,1988.79L2479.62,1988.5L2479.58,1988.43L2479.45,1988.32L2479.54,1988L2479.62,1988.04L2479.79,1987.69L2479.74,1987.66L2479.62,1987.46L2479.7,1987.26L2479.37,1987.24L2479.45,1986.74L2479.45,1986.7L2479.29,1986.68L2478.7,1986.56L2478.66,1986.44L2478.66,1986.38L2478.62,1986.48L2478.33,1986.43L2478.29,1986.36L2478.12,1986.64L2478.24,1986.68L2478.04,1987.35L2478.08,1987.37L2477.99,1987.52L2478.08,1987.54L2477.91,1987.77L2477.95,1987.79L2477.57,1987.83L2477.57,1987.88L2477.24,1987.93L2477.2,1988.02L2476.95,1987.97L2476.95,1987.8L2476.91,1987.78L2476.99,1987.54L2476.95,1987.4L2476.62,1987.33L2476.57,1987.42L2476.41,1987.36L2476.29,1987.55L2476.24,1987.53L2476.16,1987.67L2476.03,1987.69L2475.91,1987.99L2475.87,1987.96L2475.74,1988.1L2475.33,1987.94L2475.45,1987.4L2475.37,1987.48L2475.16,1987.35L2475.33,1987.11L2475.33,1987.07L2474.91,1986.96L2474.95,1986.9L2474.45,1986.65L2474.12,1987L2474.2,1987.09L2474.16,1988L2474.24,1988.03L2474.16,1988.11L2474.24,1988.2L2474.03,1988.82L2473.95,1988.9L2473.99,1988.92L2473.99,1988.98L2473.87,1988.93L2473.95,1988.62L2473.91,1988.6L2473.99,1988.51L2473.95,1988.49L2474.08,1988.31L2473.95,1988.15L2473.99,1987.76L2473.91,1987.72L2474.03,1987.54L2473.83,1987.17L2473.95,1986.87L2473.83,1986.83L2473.87,1986.61L2473.79,1986.56L2473.83,1986.47L2473.58,1986.32L2473.58,1986.26L2473.2,1986.11L2473.16,1986.21L2472.99,1986.15L2472.83,1986.43L2472.24,1986.33L2472.2,1986.43L2472.12,1986.39L2472.04,1986.65L2471.87,1986.58L2471.87,1986.54L2471.83,1986.51C2471.7,1986.99 2471.87,1987.31 2471.54,1987.8L2471.2,1987.61L2471.37,1987.13L2471.24,1987.09L2471.32,1986.9L2471.08,1986.68L2471.16,1986.48L2471.04,1986.43L2471.16,1986.01L2471.04,1985.98L2471.12,1985.7L2470.95,1985.65L2470.99,1985.54L2470.45,1985.51L2469.99,1986.43L2470.08,1986.52L2470.04,1986.62L2470.08,1986.64L2470.04,1986.74L2470.08,1986.76L2469.87,1987.31L2469.95,1987.35L2469.7,1987.71L2469.58,1987.72L2469.66,1987.76L2469.58,1987.84L2469.58,1987.89L2469.41,1987.78L2469.45,1987.68L2469.2,1987.63L2469.24,1987.24L2468.99,1987.14L2468.91,1987.29L2468.45,1987.53L2468.41,1987.5L2468.33,1987.71L2468.28,1987.69L2468.2,1987.88L2468.16,1987.87L2468.12,1987.96L2467.91,1988.01L2467.74,1988.41L2467.78,1988.43L2467.54,1988.96L2467.45,1988.87L2467.66,1988.37L2467.62,1988.35L2467.7,1988.05L2467.66,1988.03L2467.7,1987.81L2467.66,1987.79L2467.91,1987.26L2467.62,1986.96L2467.66,1986.87L2467.33,1986.68L2467.37,1986.53L2467.58,1986.61L2467.54,1986.71L2467.99,1986.7L2468.2,1986.26L2468.54,1985.75L2468.49,1985.73L2468.49,1985.51L2468.62,1985.55L2468.66,1985.45L2468.54,1985.41L2468.62,1985.21L2468.49,1985.27L2468.41,1985.13L2468.45,1985.03L2468.33,1984.97L2468.33,1984.8L2468.04,1984.63L2468.12,1984.38L2468.04,1984.29L2467.95,1984.08L2467.99,1983.98L2467.78,1983.66L2467.83,1983.56L2467.54,1983.44L2467.58,1982.88L2467.45,1982.84L2467.33,1982.38L2467.37,1982.34L2467.08,1982.28L2467.08,1982.21L2466.95,1982.29L2466.83,1982.18L2466.12,1982.03L2465.95,1981.97L2465.95,1982.02L2465.99,1982.04L2465.91,1982.12L2465.95,1982.14L2465.95,1982.19L2465.83,1982.15L2465.95,1982.31L2465.7,1982.38L2465.74,1982.4L2465.66,1982.48L2465.7,1982.5L2465.66,1982.6L2465.87,1982.85L2466.45,1982.85L2466.41,1982.9L2466.54,1982.94L2466.49,1983.04L2466.62,1983.1L2466.58,1983.25L2466.24,1983.06L2466.24,1983.11L2465.74,1982.98L2465.66,1983.13L2465.79,1983.17L2465.74,1983.22L2465.83,1983.24L2465.87,1983.5L2465.87,1983.6L2466.29,1983.88L2466.37,1984.09L2466.33,1984.19L2466.45,1984.25L2466.49,1984.66L2466.37,1984.91L2466.24,1984.81L2466.33,1984.61L2466.12,1984.52L2466.2,1984.32L2466.12,1984.29L2466.08,1984.04L2465.99,1984L2465.91,1984.09L2465.91,1984.2L2465.87,1984.18L2465.83,1984.24L2465.62,1984.11L2465.7,1984L2465.83,1984.06L2465.87,1983.89L2465.7,1983.66L2465.45,1983.56L2465.49,1983.34L2465.54,1983.36L2465.54,1983.31L2465.33,1983.16L2465.37,1983.06L2465.16,1982.98L2465.16,1982.93L2464.79,1982.84L2464.74,1982.94L2464.66,1982.9L2464.37,1983.26L2464.37,1983.31L2464.03,1983.25L2463.87,1983.77L2464.03,1983.83L2464.07,1984.02L2464.07,1984.07L2463.91,1984.01L2463.95,1983.91L2463.83,1983.92L2463.62,1984.01L2463.53,1983.99L2463.57,1984.11L2463.45,1984.41L2463.95,1984.95L2463.83,1985.03L2463.83,1985.08L2463.5,1984.89L2463.53,1984.79L2463.41,1984.75L2463.45,1984.65L2463.33,1984.6L2463.33,1984.37L2462.74,1984.37L2462.87,1984.41L2462.74,1984.66L2462.83,1984.75L2462.79,1984.9L2462.83,1984.92L2462.7,1985.11L2462.33,1984.8L2462.08,1984.93L2461.91,1985.26L2462.03,1985.6L2462.49,1985.9L2462.45,1986.17L2462.66,1986.25L2462.66,1986.32L2462.79,1986.24L2463.03,1986.34L2463.03,1986.29L2463.29,1986.31L2463.33,1986.21L2463.45,1986.27L2463.5,1986.22L2463.87,1986.31L2463.83,1986.36L2464.12,1986.36L2464.2,1986.21L2464.7,1986.29L2464.7,1986.41L2465.04,1986.65L2465.04,1986.61L2465.29,1986.7L2465.29,1986.58L2465.49,1986.71L2465.37,1986.84L2465.54,1986.97L2465.58,1987.33L2465.87,1987.45L2466.08,1987.17L2466.29,1987.25L2466.24,1987.35L2466.29,1987.37L2466.33,1987.63L2466.16,1987.55L2466.12,1987.65L2465.79,1987.76L2465.62,1987.69L2465.62,1987.64L2465.58,1987.62L2465.54,1987.77L2465.37,1987.72L2465.07,1987.83L2464.95,1988.01L2464.87,1987.97L2464.66,1988.31L2465.04,1988.52L2465.04,1988.68L2465.29,1988.79L2465.29,1988.84L2465.37,1988.88L2465.37,1988.93L2465.87,1988.96L2466.04,1988.8L2466.08,1988.74L2466.24,1988.81L2465.79,1989.33L2465.24,1989.18L2465.29,1989.08L2464.74,1988.81L2464.62,1988.65L2464.54,1988.78L2464.12,1988.5L2463.95,1988.56L2463.91,1988.66L2463.83,1988.57L2463.79,1988.72L2463.33,1988.49L2463.33,1988.54L2463.07,1988.51L2463.03,1988.61L2462.95,1988.57L2462.99,1988.47L2462.95,1988.46L2462.83,1988.53L2462.41,1988.48L2462.29,1988.6L2461.99,1988.49L2461.99,1988.43L2461.7,1988.27L2461.62,1988.35L2461.49,1988.31L2461.24,1988.66L2461.37,1988.71L2461.33,1989.22L2461.41,1989.26L2461.37,1989.36L2461.49,1989.35C2461.91,1989.51 2461.95,1989.47 2462.2,1989.27L2462.79,1989.44L2462.74,1989.49L2463.37,1989.72L2463.37,1989.77L2464,1990.09L2464,1990.03L2464.07,1990.05L2464.07,1990.18L2464.29,1990.33L2464.03,1990.52L2463.95,1990.65L2464.07,1990.81L2464,1991.13L2464.07,1991.17L2464,1991.25L2464.03,1991.27L2464,1991.59L2464.2,1991.79L2464.41,1991.53L2464.62,1991.61L2464.49,1991.74L2464.45,1991.72L2464.41,1991.87L2464.33,1991.85L2464.29,1991.95L2464.24,1991.93L2464.24,1992.1L2464.2,1992.08L2464.12,1992.23L2464.07,1992.21L2464,1992.41L2464.03,1992.43L2464.03,1992.48L2464.41,1992.57L2464.33,1992.72L2464.24,1992.68L2464.2,1992.96L2464.33,1993.01L2464.41,1993.15L2464.37,1993.26L2463.91,1993.03L2463.79,1993.42L2463.57,1993.42L2463.53,1993.51L2462.99,1993.42L2462.87,1993.6L2462.62,1993.5L2462.74,1993.15L2462.87,1993.18L2462.87,1993.14L2462.66,1993.06L2462.7,1993.01L2462.53,1992.82L2462.33,1993.15L2462.29,1993.14C2462.12,1993.52 2461.95,1993.88 2461.99,1994.18L2462.41,1994.34L2462.49,1994.26L2463.07,1994.55L2463.07,1994.5L2463.5,1994.65L2463.57,1994.58L2463.87,1994.75L2463.87,1994.8L2464.2,1994.93L2464.2,1994.99L2464.45,1994.97L2464.45,1994.91L2464.57,1994.96L2464.62,1994.86L2464.91,1994.98L2464.91,1995.15L2465.16,1995.3L2465.12,1995.4L2465.54,1995.67L2465.49,1995.9L2465.58,1995.94L2465.54,1996.04L2465.66,1996.08L2465.62,1996.18L2465.7,1996.22L2465.66,1996.31L2465.79,1996.36L2465.74,1996.46L2466.08,1996.82L2466.04,1997.04L2466.29,1997.18L2466.24,1997.24L2466.37,1997.23L2466.49,1997.34L2466.54,1997.29L2466.91,1997.43L2466.87,1997.48L2467.16,1997.6L2467.12,1997.7L2467.33,1997.83L2467.29,1997.88L2467.49,1997.96L2467.49,1998.08L2467.62,1998.12L2467.58,1998.17L2467.7,1998.21L2467.66,1998.26L2467.95,1998.36C2468.16,1998.55 2468.45,1998.69 2468.87,1998.84L2468.91,1998.74L2469.2,1998.86L2469.24,1998.76L2470.16,1998.82L2470.25,1998.84L2470.28,1998.69L2470.45,1998.71L2470.49,1998.77L2470.58,1998.58L2470.62,1998.59L2470.91,1998.3L2471.04,1998.34L2471.08,1998.19L2471.12,1998.21L2471.37,1998.07L2471.54,1998.13L2471.54,1998.08L2471.62,1998.17L2471.66,1998.12L2471.74,1998.16L2471.79,1998.11L2472.08,1998.23L2472.08,1998.18L2472.58,1998.43L2472.66,1998.35L2472.91,1998.37L2472.87,1998.48L2472.95,1998.52L2473.08,1998.44L2473.08,1998.38L2473.24,1998.52L2473.33,1998.36L2473.41,1998.4L2473.45,1998.3L2473.62,1998.36L2473.66,1998.26L2473.74,1998.3L2473.79,1998.2L2473.91,1998.24L2474.03,1998.01L2474.29,1998.04L2474.37,1997.96L2474.41,1997.91L2474.53,1997.97L2474.62,1997.82L2474.83,1997.9L2474.95,1997.72L2475.03,1997.76L2475.2,1997.58L2475.62,1997.63L2475.66,1997.53L2475.87,1997.61L2475.91,1997.51C2476.33,1997.65 2476.7,1997.79 2477.12,1997.92L2477.41,1997.51L2477.54,1997.57L2477.57,1997.47L2477.83,1997.5L2477.83,1997.45L2477.95,1997.49L2477.95,1997.44L2478.16,1997.52L2478.24,1997.49L2478.41,1997.2L2478.45,1997.23L2478.58,1996.97L2478.62,1997L2478.62,1996.82L2478.54,1996.79L2478.58,1996.68L2479.12,1996.66L2479.16,1996.68L2479.16,1996.34L2479.7,1996.54L2479.7,1996.49L2479.66,1996.42L2479.74,1996.44L2479.74,1996.39L2479.7,1996.37L2479.7,1996.32L2480.08,1996.22L2480.2,1996.28L2480.28,1996.13L2480.41,1996.18L2480.45,1996.02L2480.54,1996.06L2480.7,1995.54L2480.87,1995.61L2480.91,1995.57L2481.37,1995.34L2481.45,1995.13L2481.41,1995.11L2481.41,1994.89L2481.37,1994.88L2481.49,1994.45L2481.37,1994L2481.45,1993.85L2481.54,1993.84L2481.66,1993.71L2481.7,1993.73L2481.99,1993.15L2481.95,1993.13ZM2464.99,1997.81L2465.12,1997.84L2465.16,1997.74L2465.04,1997.71L2464.99,1997.81ZM2465.87,1997.27C2465.83,1997.35 2465.79,1997.42 2465.74,1997.5L2465.74,1997.57C2465.76,1997.55 2465.77,1997.53 2465.79,1997.52L2465.87,1997.27Z" style="fill:white;fill-rule:nonzero;"/>
            </g>
        </g>
        <g transform="matrix(4.16667,0,0,4.16667,0,0)">
            <g transform="matrix(4.00463,0,0,4.00463,-3558.1,-1140.74)">
                <path d="M1088.59,359.848C1080.92,359.848 1074.66,358.442 1069.6,353.238L1077.47,345.36C1080.07,347.962 1084.65,348.875 1088.65,348.875C1093.51,348.875 1095.83,347.259 1095.83,344.375C1095.83,343.18 1095.55,342.195 1094.84,341.422C1094.21,340.789 1093.16,340.296 1091.54,340.084L1085.49,339.241C1081.06,338.608 1077.68,337.132 1075.43,334.811C1073.11,332.419 1071.99,329.045 1071.99,324.754C1071.99,315.612 1078.88,308.93 1090.27,308.93C1097.45,308.93 1102.86,310.618 1107.15,314.909L1099.42,322.644C1096.25,319.479 1092.1,319.692 1089.92,319.692C1085.63,319.692 1083.87,322.152 1083.87,324.332C1083.87,324.965 1084.08,325.879 1084.86,326.653C1085.49,327.286 1086.55,327.918 1088.31,328.13L1094.35,328.975C1098.85,329.606 1102.09,331.013 1104.2,333.123C1106.87,335.725 1107.93,339.452 1107.93,344.094C1107.93,354.291 1099.13,359.848 1088.59,359.848Z" style="fill:white;fill-rule:nonzero;"/>
            </g>
        </g>
        <g transform="matrix(4.16667,0,0,4.16667,0,0)">
            <g transform="matrix(4.00463,0,0,4.00463,-3558.1,-1140.74)">
                <path d="M938.957,359.426L938.957,309.352L972.997,309.352L972.997,320.323L951.266,320.323L951.266,328.691L969.832,328.691L969.832,339.663L951.266,339.663L951.266,348.454L972.997,348.454L972.997,359.426L938.957,359.426Z" style="fill:white;fill-rule:nonzero;"/>
            </g>
        </g>
        <g transform="matrix(4.16667,0,0,4.16667,0,0)">
            <g transform="matrix(4.00463,0,0,4.00463,-3558.1,-1140.74)">
                <path d="M994.875,332.41C990.926,332.41 987.725,329.207 987.725,325.259C987.725,321.308 990.926,318.106 994.875,318.106C998.827,318.106 1002.03,321.308 1002.03,325.259C1002.03,329.207 998.827,332.41 994.875,332.41ZM995.252,309.352L975.418,309.352L975.418,359.426L987.727,359.426L987.727,341.563L995.252,341.563C1006.36,341.563 1012.34,333.686 1012.34,325.456C1012.34,317.229 1006.36,309.352 995.252,309.352Z" style="fill:white;fill-rule:nonzero;"/>
            </g>
        </g>
        <g transform="matrix(4.16667,0,0,4.16667,0,0)">
            <g transform="matrix(4.00463,0,0,4.00463,-3558.1,-1140.74)">
                <path d="M943.145,373.705L940.403,373.705L940.403,376.096L943.467,376.096L943.467,377.963L938.723,377.963L938.723,367.893L943.311,367.893L943.311,369.76L940.403,369.76L940.403,371.852L943.145,371.852L943.145,373.705Z" style="fill:white;fill-rule:nonzero;"/>
            </g>
        </g>
        <g transform="matrix(4.16667,0,0,4.16667,0,0)">
            <g transform="matrix(4.00463,0,0,4.00463,-3558.1,-1140.74)">
                <path d="M945.688,367.893L945.688,373.87C945.688,376.112 946.43,377.067 947.424,377.067C948.52,377.067 949.239,376.08 949.239,373.87L949.239,367.893L950.211,367.893L950.211,373.78C950.211,376.873 949.006,378.127 947.391,378.127C945.866,378.127 944.715,376.962 944.715,373.825L944.715,367.893L945.688,367.893Z" style="fill:white;fill-rule:nonzero;"/>
            </g>
        </g>
        <g transform="matrix(4.16667,0,0,4.16667,0,0)">
            <g transform="matrix(4.00463,0,0,4.00463,-3558.1,-1140.74)">
                <path d="M952.842,372.614L953.827,372.614C954.856,372.614 955.508,371.852 955.508,370.702C955.508,369.402 954.811,368.834 953.793,368.834C953.329,368.834 953.008,368.894 952.842,368.954L952.842,372.614ZM951.881,368.041C952.368,367.908 953.075,367.818 953.727,367.818C954.756,367.818 955.43,368.086 955.895,368.655C956.26,369.088 956.481,369.776 956.481,370.567C956.481,371.882 955.85,372.764 955.077,373.122L955.077,373.166C955.641,373.436 955.983,374.154 956.17,375.2C956.414,376.604 956.592,377.575 956.735,377.963L955.741,377.963C955.618,377.68 955.452,376.813 955.252,375.558C955.032,374.168 954.623,373.645 953.75,373.6L952.842,373.6L952.842,377.963L951.881,377.963L951.881,368.041Z" style="fill:white;fill-rule:nonzero;"/>
            </g>
        </g>
        <g transform="matrix(4.16667,0,0,4.16667,0,0)">
            <g transform="matrix(4.00463,0,0,4.00463,-3558.1,-1140.74)">
                <path d="M960.815,377.067C962.34,377.067 963.204,375.169 963.204,372.883C963.204,370.881 962.428,368.789 960.825,368.789C959.221,368.789 958.426,370.806 958.426,372.988C958.426,375.11 959.288,377.067 960.803,377.067L960.815,377.067ZM960.77,378.127C958.791,378.127 957.418,376.066 957.418,373.018C957.418,369.821 958.879,367.729 960.87,367.729C962.914,367.729 964.231,369.834 964.231,372.824C964.231,376.275 962.672,378.127 960.782,378.127L960.77,378.127Z" style="fill:white;fill-rule:nonzero;"/>
            </g>
        </g>
        <g transform="matrix(4.16667,0,0,4.16667,0,0)">
            <g transform="matrix(4.00463,0,0,4.00463,-3558.1,-1140.74)">
                <path d="M966.442,372.868C966.653,372.943 966.928,372.973 967.239,372.973C968.411,372.973 969.108,372.196 969.108,370.836C969.108,369.492 968.411,368.848 967.35,368.848C966.928,368.848 966.608,368.909 966.442,368.954L966.442,372.868ZM965.481,368.028C965.944,367.908 966.553,367.818 967.327,367.818C968.278,367.818 968.975,368.118 969.416,368.655C969.827,369.133 970.081,369.865 970.081,370.762C970.081,371.672 969.881,372.39 969.495,372.913C968.987,373.645 968.157,374.019 967.217,374.019C966.928,374.019 966.664,374.004 966.442,373.929L966.442,377.963L965.481,377.963L965.481,368.028Z" style="fill:white;fill-rule:nonzero;"/>
            </g>
        </g>
        <g transform="matrix(4.16667,0,0,4.16667,0,0)">
            <g transform="matrix(4.00463,0,0,4.00463,-3558.1,-1140.74)">
                <path d="M975.211,373.243L972.325,373.243L972.325,376.873L975.553,376.873L975.553,377.963L971.352,377.963L971.352,367.893L975.389,367.893L975.389,368.984L972.325,368.984L972.325,372.166L975.211,372.166L975.211,373.243Z" style="fill:white;fill-rule:nonzero;"/>
            </g>
        </g>
        <g transform="matrix(4.16667,0,0,4.16667,0,0)">
            <g transform="matrix(4.00463,0,0,4.00463,-3558.1,-1140.74)">
                <path d="M980.452,373.78L979.711,370.881C979.557,370.223 979.446,369.625 979.334,369.043L979.303,369.043C979.204,369.625 979.081,370.253 978.938,370.866L978.207,373.78L980.452,373.78ZM978.008,374.795L977.235,377.963L976.239,377.963L978.772,367.893L979.932,367.893L982.477,377.963L981.448,377.963L980.651,374.795L978.008,374.795Z" style="fill:white;fill-rule:nonzero;"/>
            </g>
        </g>
        <g transform="matrix(4.16667,0,0,4.16667,0,0)">
            <g transform="matrix(4.00463,0,0,4.00463,-3558.1,-1140.74)">
                <path d="M983.571,377.963L983.571,367.893L984.631,367.893L987.008,372.988C987.551,374.168 987.993,375.214 988.336,376.26L988.37,376.246C988.282,374.901 988.258,373.676 988.258,372.122L988.258,367.893L989.166,367.893L989.166,377.963L988.192,377.963L985.827,372.854C985.307,371.733 984.809,370.582 984.444,369.492L984.411,369.506C984.465,370.776 984.477,371.987 984.477,373.661L984.477,377.963L983.571,377.963Z" style="fill:white;fill-rule:nonzero;"/>
            </g>
        </g>
        <g transform="matrix(4.16667,0,0,4.16667,0,0)">
            <g transform="matrix(4.00463,0,0,4.00463,-3558.1,-1140.74)">
                <path d="M992.405,372.599C992.549,372.645 992.725,372.659 992.969,372.659C993.864,372.659 994.418,372.046 994.418,371.03C994.418,370.104 993.954,369.551 993.102,369.551C992.758,369.551 992.526,369.58 992.405,369.625L992.405,372.599ZM990.735,368.028C991.254,367.908 991.985,367.818 993.012,367.818C994.053,367.818 994.805,368.086 995.303,368.64C995.778,369.133 996.086,369.969 996.086,370.955C996.086,371.957 995.856,372.793 995.413,373.346C994.838,374.064 993.975,374.408 992.979,374.408C992.758,374.408 992.559,374.392 992.405,374.348L992.405,377.963L990.735,377.963L990.735,368.028Z" style="fill:white;fill-rule:nonzero;"/>
            </g>
        </g>
        <g transform="matrix(4.16667,0,0,4.16667,0,0)">
            <g transform="matrix(4.00463,0,0,4.00463,-3558.1,-1140.74)">
                <path d="M997.258,367.893L998.233,367.893L998.233,376.873L1001.42,376.873L1001.42,377.963L997.258,377.963L997.258,367.893Z" style="fill:white;fill-rule:nonzero;"/>
            </g>
        </g>
        <g transform="matrix(4.16667,0,0,4.16667,0,0)">
            <g transform="matrix(4.00463,0,0,4.00463,-3558.1,-1140.74)">
                <path d="M1006.16,373.78L1005.42,370.881C1005.26,370.223 1005.15,369.625 1005.04,369.043L1005.01,369.043C1004.91,369.625 1004.79,370.253 1004.64,370.866L1003.91,373.78L1006.16,373.78ZM1003.72,374.795L1002.94,377.963L1001.95,377.963L1004.48,367.893L1005.64,367.893L1008.18,377.963L1007.15,377.963L1006.36,374.795L1003.72,374.795Z" style="fill:white;fill-rule:nonzero;"/>
            </g>
        </g>
        <g transform="matrix(4.16667,0,0,4.16667,0,0)">
            <g transform="matrix(4.00463,0,0,4.00463,-3558.1,-1140.74)">
                <path d="M1009.82,368.998L1007.55,368.998L1007.55,367.893L1013.07,367.893L1013.07,368.998L1010.8,368.998L1010.8,377.963L1009.82,377.963L1009.82,368.998Z" style="fill:white;fill-rule:nonzero;"/>
            </g>
        </g>
        <g transform="matrix(4.16667,0,0,4.16667,0,0)">
            <g transform="matrix(4.00463,0,0,4.00463,-3558.1,-1140.74)">
                <path d="M1017.75,373.243L1014.86,373.243L1014.86,376.873L1018.09,376.873L1018.09,377.963L1013.89,377.963L1013.89,367.893L1017.93,367.893L1017.93,368.984L1014.86,368.984L1014.86,372.166L1017.75,372.166L1017.75,373.243Z" style="fill:white;fill-rule:nonzero;"/>
            </g>
        </g>
        <g transform="matrix(4.16667,0,0,4.16667,0,0)">
            <g transform="matrix(4.00463,0,0,4.00463,-3558.1,-1140.74)">
                <path d="M1022.47,376.321C1023.61,376.321 1024.26,374.87 1024.26,372.899C1024.26,371.09 1023.63,369.536 1022.47,369.536C1021.31,369.536 1020.66,371.061 1020.66,372.943C1020.66,374.84 1021.33,376.321 1022.46,376.321L1022.47,376.321ZM1022.39,378.127C1020.19,378.127 1018.89,375.872 1018.89,373.002C1018.89,369.985 1020.33,367.729 1022.52,367.729C1024.81,367.729 1026.06,370.044 1026.06,372.824C1026.06,376.141 1024.58,378.127 1022.4,378.127L1022.39,378.127Z" style="fill:white;fill-rule:nonzero;"/>
            </g>
        </g>
        <g transform="matrix(4.16667,0,0,4.16667,0,0)">
            <g transform="matrix(4.00463,0,0,4.00463,-3558.1,-1140.74)">
                <path d="M1028.23,376.977C1028.43,377.022 1028.7,377.038 1029.04,377.038C1030.03,377.038 1030.95,376.544 1030.95,375.08C1030.95,373.72 1030.08,373.137 1029.03,373.137L1028.23,373.137L1028.23,376.977ZM1028.23,372.166L1029.11,372.166C1030.11,372.166 1030.71,371.434 1030.71,370.463C1030.71,369.297 1030.06,368.819 1029.08,368.819C1028.64,368.819 1028.39,368.864 1028.23,368.909L1028.23,372.166ZM1027.27,368.041C1027.69,367.908 1028.37,367.818 1029.03,367.818C1029.99,367.818 1030.61,368.041 1031.06,368.55C1031.45,368.939 1031.69,369.536 1031.69,370.329C1031.69,371.315 1031.21,372.166 1030.43,372.539L1030.43,372.584C1031.14,372.809 1031.97,373.6 1031.97,375.094C1031.97,375.961 1031.72,376.619 1031.33,377.112C1030.82,377.754 1029.98,378.053 1028.76,378.053C1028.1,378.053 1027.59,377.993 1027.27,377.934L1027.27,368.041Z" style="fill:white;fill-rule:nonzero;"/>
            </g>
        </g>
        <g transform="matrix(4.16667,0,0,4.16667,0,0)">
            <g transform="matrix(4.00463,0,0,4.00463,-3558.1,-1140.74)">
                <path d="M1033.14,376.379C1033.57,376.753 1034.19,377.038 1034.86,377.038C1035.84,377.038 1036.41,376.35 1036.41,375.319C1036.41,374.392 1036.02,373.84 1035.01,373.331C1033.79,372.734 1033.04,371.868 1033.04,370.463C1033.04,368.894 1034,367.729 1035.45,367.729C1036.21,367.729 1036.77,367.967 1037.09,368.221L1036.82,369.282C1036.59,369.088 1036.09,368.804 1035.42,368.804C1034.4,368.804 1034.01,369.625 1034.01,370.313C1034.01,371.254 1034.47,371.717 1035.5,372.256C1036.76,372.928 1037.39,373.735 1037.39,375.214C1037.39,376.768 1036.55,378.127 1034.79,378.127C1034.07,378.127 1033.29,377.829 1032.89,377.47L1033.14,376.379Z" style="fill:white;fill-rule:nonzero;"/>
            </g>
        </g>
        <g transform="matrix(4.16667,0,0,4.16667,0,0)">
            <g transform="matrix(4.00463,0,0,4.00463,-3558.1,-1140.74)">
                <path d="M1042.56,373.243L1039.68,373.243L1039.68,376.873L1042.9,376.873L1042.9,377.963L1038.7,377.963L1038.7,367.893L1042.74,367.893L1042.74,368.984L1039.68,368.984L1039.68,372.166L1042.56,372.166L1042.56,373.243Z" style="fill:white;fill-rule:nonzero;"/>
            </g>
        </g>
        <g transform="matrix(4.16667,0,0,4.16667,0,0)">
            <g transform="matrix(4.00463,0,0,4.00463,-3558.1,-1140.74)">
                <path d="M1045.12,372.614L1046.1,372.614C1047.13,372.614 1047.78,371.852 1047.78,370.702C1047.78,369.402 1047.08,368.834 1046.07,368.834C1045.6,368.834 1045.28,368.894 1045.12,368.954L1045.12,372.614ZM1044.15,368.041C1044.64,367.908 1045.35,367.818 1046,367.818C1047.03,367.818 1047.7,368.086 1048.17,368.655C1048.53,369.088 1048.75,369.776 1048.75,370.567C1048.75,371.882 1048.12,372.764 1047.35,373.122L1047.35,373.166C1047.91,373.436 1048.26,374.154 1048.45,375.2C1048.69,376.604 1048.87,377.575 1049.01,377.963L1048.01,377.963C1047.89,377.68 1047.73,376.813 1047.53,375.558C1047.31,374.168 1046.9,373.645 1046.02,373.6L1045.12,373.6L1045.12,377.963L1044.15,377.963L1044.15,368.041Z" style="fill:white;fill-rule:nonzero;"/>
            </g>
        </g>
        <g transform="matrix(4.16667,0,0,4.16667,0,0)">
            <g transform="matrix(4.00463,0,0,4.00463,-3558.1,-1140.74)">
                <path d="M1051.92,377.963L1049.47,367.893L1050.52,367.893L1051.68,372.854C1051.99,374.213 1052.27,375.454 1052.48,376.619L1052.5,376.619C1052.71,375.454 1053.01,374.183 1053.35,372.868L1054.61,367.893L1055.64,367.893L1052.98,377.963L1051.92,377.963Z" style="fill:white;fill-rule:nonzero;"/>
            </g>
        </g>
        <g transform="matrix(4.16667,0,0,4.16667,0,0)">
            <g transform="matrix(4.00463,0,0,4.00463,-3558.1,-1140.74)">
                <rect x="1056.44" y="367.893" width="0.97" height="10.07" style="fill:white;fill-rule:nonzero;"/>
            </g>
        </g>
        <g transform="matrix(4.16667,0,0,4.16667,0,0)">
            <g transform="matrix(4.00463,0,0,4.00463,-3558.1,-1140.74)">
                <path d="M1059.09,377.963L1059.09,367.893L1060.15,367.893L1062.53,372.988C1063.07,374.168 1063.51,375.214 1063.86,376.26L1063.89,376.246C1063.8,374.901 1063.78,373.676 1063.78,372.122L1063.78,367.893L1064.69,367.893L1064.69,377.963L1063.71,377.963L1061.35,372.854C1060.83,371.733 1060.33,370.582 1059.97,369.492L1059.93,369.506C1059.99,370.776 1060,371.987 1060,373.661L1060,377.963L1059.09,377.963Z" style="fill:white;fill-rule:nonzero;"/>
            </g>
        </g>
        <g transform="matrix(4.16667,0,0,4.16667,0,0)">
            <g transform="matrix(4.00463,0,0,4.00463,-3558.1,-1140.74)">
                <path d="M1072.05,377.515C1071.62,377.739 1070.76,378.069 1069.75,378.069C1068.62,378.069 1067.69,377.68 1066.97,376.739C1066.32,375.901 1065.92,374.557 1065.92,372.988C1065.92,369.985 1067.46,367.788 1069.96,367.788C1070.82,367.788 1071.51,368.041 1071.83,368.25L1071.59,369.313C1071.19,369.058 1070.69,368.879 1069.94,368.879C1068.13,368.879 1066.94,370.403 1066.94,372.928C1066.94,375.483 1068.07,376.993 1069.82,376.993C1070.45,376.993 1070.88,376.873 1071.1,376.723L1071.1,373.72L1069.6,373.72L1069.6,372.674L1072.05,372.674L1072.05,377.515Z" style="fill:white;fill-rule:nonzero;"/>
            </g>
        </g>
        <g transform="matrix(4.16667,0,0,4.16667,0,0)">
            <g transform="matrix(4.00463,0,0,4.00463,-3558.1,-1140.74)">
                <path d="M1073.46,375.633C1073.9,375.947 1074.61,376.26 1075.32,376.26C1076.1,376.26 1076.51,375.827 1076.51,375.155C1076.51,374.541 1076.15,374.168 1075.26,373.75C1074.02,373.153 1073.2,372.225 1073.2,370.747C1073.2,369.028 1074.27,367.729 1076.02,367.729C1076.87,367.729 1077.48,367.953 1077.92,368.237L1077.55,370.059C1077.26,369.865 1076.72,369.58 1076,369.58C1075.27,369.58 1074.91,370.044 1074.91,370.552C1074.91,371.195 1075.32,371.479 1076.3,371.987C1077.61,372.645 1078.22,373.571 1078.22,375.005C1078.22,376.694 1077.27,378.127 1075.23,378.127C1074.37,378.127 1073.53,377.814 1073.11,377.5L1073.46,375.633Z" style="fill:white;fill-rule:nonzero;"/>
            </g>
        </g>
        <g transform="matrix(4.16667,0,0,4.16667,0,0)">
            <g transform="matrix(4.00463,0,0,4.00463,-3558.1,-1140.74)">
                <path d="M1081.14,377.963L1081.14,373.69L1078.77,367.893L1079.88,367.893L1080.93,370.672C1081.21,371.434 1081.44,372.046 1081.67,372.748L1081.69,372.748C1081.89,372.091 1082.16,371.434 1082.44,370.672L1083.52,367.893L1084.6,367.893L1082.11,373.676L1082.11,377.963L1081.14,377.963Z" style="fill:white;fill-rule:nonzero;"/>
            </g>
        </g>
        <g transform="matrix(4.16667,0,0,4.16667,0,0)">
            <g transform="matrix(4.00463,0,0,4.00463,-3558.1,-1140.74)">
                <path d="M1085.2,376.379C1085.63,376.753 1086.25,377.038 1086.91,377.038C1087.9,377.038 1088.47,376.35 1088.47,375.319C1088.47,374.392 1088.07,373.84 1087.07,373.331C1085.85,372.734 1085.1,371.868 1085.1,370.463C1085.1,368.894 1086.06,367.729 1087.51,367.729C1088.26,367.729 1088.82,367.967 1089.15,368.221L1088.88,369.282C1088.65,369.088 1088.15,368.804 1087.48,368.804C1086.46,368.804 1086.07,369.625 1086.07,370.313C1086.07,371.254 1086.53,371.717 1087.55,372.256C1088.81,372.928 1089.45,373.735 1089.45,375.214C1089.45,376.768 1088.6,378.127 1086.85,378.127C1086.13,378.127 1085.34,377.829 1084.94,377.47L1085.2,376.379Z" style="fill:white;fill-rule:nonzero;"/>
            </g>
        </g>
        <g transform="matrix(4.16667,0,0,4.16667,0,0)">
            <g transform="matrix(4.00463,0,0,4.00463,-3558.1,-1140.74)">
                <path d="M1092.19,368.998L1089.92,368.998L1089.92,367.893L1095.44,367.893L1095.44,368.998L1093.16,368.998L1093.16,377.963L1092.19,377.963L1092.19,368.998Z" style="fill:white;fill-rule:nonzero;"/>
            </g>
        </g>
        <g transform="matrix(4.16667,0,0,4.16667,0,0)">
            <g transform="matrix(4.00463,0,0,4.00463,-3558.1,-1140.74)">
                <path d="M1100.12,373.243L1097.23,373.243L1097.23,376.873L1100.46,376.873L1100.46,377.963L1096.26,377.963L1096.26,367.893L1100.29,367.893L1100.29,368.984L1097.23,368.984L1097.23,372.166L1100.12,372.166L1100.12,373.243Z" style="fill:white;fill-rule:nonzero;"/>
            </g>
        </g>
        <g transform="matrix(4.16667,0,0,4.16667,0,0)">
            <g transform="matrix(4.00463,0,0,4.00463,-3558.1,-1140.74)">
                <path d="M1107.99,373.541C1107.93,372.136 1107.87,370.432 1107.87,369.193L1107.84,369.193C1107.58,370.358 1107.28,371.628 1106.9,373.018L1105.59,377.904L1104.86,377.904L1103.64,373.108C1103.29,371.672 1103,370.387 1102.79,369.193L1102.77,369.193C1102.75,370.448 1102.69,372.122 1102.63,373.645L1102.43,377.963L1101.51,377.963L1102.03,367.893L1103.25,367.893L1104.53,372.764C1104.84,374.004 1105.08,375.11 1105.28,376.156L1105.3,376.156C1105.5,375.139 1105.77,374.034 1106.1,372.764L1107.42,367.893L1108.65,367.893L1109.12,377.963L1108.16,377.963L1107.99,373.541Z" style="fill:white;fill-rule:nonzero;"/>
            </g>
        </g>
    </g>
</svg>
